

<svg width="240" style="" viewBox="0 0 196 47" fill="none" xmlns="http://www.w3.org/2000/svg"><path d="M26.299 5.1v5.65h-9.3V40h-7V10.75h-9.3V5.1zm12.107 11.5q1.35-2.2 3.5-3.45 2.2-1.25 5-1.25v7.35h-1.85q-3.3 0-5 1.55-1.65 1.55-1.65 5.4V40h-7V12.3h7zm25.515 23.85q-4 0-7.2-1.75-3.2-1.8-5.05-5.05-1.8-3.25-1.8-7.5t1.85-7.5q1.9-3.25 5.15-5 3.25-1.8 7.25-1.8t7.25 1.8q3.25 1.75 5.1 5 1.9 3.25 1.9 7.5t-1.95 7.5q-1.9 3.25-5.2 5.05-3.25 1.75-7.3 1.75m0-6.1q1.9 0 3.55-.9 1.7-.95 2.7-2.8t1-4.5q0-3.95-2.1-6.05-2.05-2.15-5.05-2.15t-5.05 2.15q-2 2.1-2 6.05t1.95 6.1q2 2.1 5 2.1m31.885 6.1q-4 0-7.2-1.75-3.2-1.8-5.05-5.05-1.8-3.25-1.8-7.5t1.85-7.5q1.9-3.25 5.15-5 3.25-1.8 7.25-1.8t7.25 1.8q3.249 1.75 5.1 5 1.9 3.25 1.9 7.5t-1.95 7.5q-1.9 3.25-5.2 5.05-3.25 1.75-7.3 1.75m0-6.1q1.9 0 3.55-.9 1.7-.95 2.7-2.8t1-4.5q0-3.95-2.1-6.05-2.05-2.15-5.05-2.15t-5.05 2.15q-2 2.1-2 6.05t1.95 6.1q2 2.1 5 2.1m26.584.1h11.5V40h-18.5V5.1h7zM141.89 9q-1.85 0-3.1-1.15-1.2-1.2-1.2-2.95t1.2-2.9q1.25-1.2 3.1-1.2t3.05 1.2q1.25 1.15 1.25 2.9t-1.25 2.95Q143.74 9 141.89 9m3.45 3.3V40h-7V12.3zm19.616 5.75h-4.85V40h-7.1V18.05h-3.15V12.3h3.15v-1.4q0-5.1 2.9-7.5t8.75-2.25v5.9q-2.55-.05-3.55.85t-1 3.25v1.15h4.85zm30.286 7.5q0 1.5-.2 2.7h-20.25q.25 3 2.1 4.7t4.55 1.7q3.9 0 5.55-3.35h7.55q-1.2 4-4.6 6.6-3.4 2.55-8.35 2.55-4 0-7.2-1.75-3.15-1.8-4.95-5.05-1.75-3.25-1.75-7.5 0-4.3 1.75-7.55t4.9-5 7.25-1.75q3.95 0 7.05 1.7a11.73 11.73 0 0 1 4.85 4.85q1.75 3.1 1.75 7.15m-7.25-2q-.05-2.7-1.95-4.3-1.9-1.65-4.65-1.65-2.6 0-4.4 1.6-1.75 1.55-2.15 4.35z" fill="#fff"/><path d="M50 46h59" stroke="#F6DBA0" stroke-width="2"/></svg>