<svg class="img-brand" width="158" height="46" viewBox="0 0 158 46" fill="none" xmlns="http://www.w3.org/2000/svg"><g clip-path="url(#a)" fill="#fff"><path d="M22.803 5.855h-9.488v29.317H9.466V5.855H0V2.378h22.803z"/><path d="M31.717 15.55q-.987-.755-2.841-.755-2.408 0-4.023 2.263-1.617 2.263-1.616 6.175V35.17h-3.758V11.755h3.758v4.824h.09q.801-2.47 2.453-3.854 1.65-1.383 3.69-1.382 1.469 0 2.247.32v3.89zm11.814 20.17q-5.201 0-8.309-3.282-3.105-3.283-3.106-8.703 0-5.9 3.233-9.216 3.231-3.315 8.731-3.316c3.667 0 6.229 1.075 8.194 3.226q2.944 3.224 2.945 8.94c0 3.811-1.059 6.726-3.173 8.975q-3.174 3.374-8.515 3.373zm.276-21.358q-3.621 0-5.73 2.457-2.11 2.46-2.11 6.78c0 2.88.71 4.961 2.131 6.563q2.131 2.403 5.706 2.402c2.383 0 4.297-.787 5.604-2.357q1.96-2.355 1.96-6.699c0-2.896-.654-5.183-1.96-6.769q-1.958-2.378-5.604-2.377zm25.77 21.358q-5.202 0-8.309-3.282-3.105-3.283-3.106-8.703 0-5.9 3.232-9.216t8.732-3.316c3.666 0 6.229 1.075 8.193 3.226q2.945 3.224 2.946 8.94c0 3.811-1.059 6.726-3.174 8.975q-3.174 3.374-8.514 3.373zm.276-21.358q-3.621 0-5.73 2.457-2.111 2.46-2.11 6.78c0 2.88.71 4.961 2.131 6.563q2.13 2.403 5.706 2.402c2.383 0 4.296-.787 5.604-2.357q1.959-2.355 1.96-6.699c0-2.896-.655-5.183-1.96-6.769q-1.958-2.378-5.604-2.377zm32.998 20.81H85.8V2.378h3.85v29.317h13.201zm4.492-29.362q-1.01 0-1.718-.685-.712-.687-.711-1.738 0-1.051.711-1.75a2.36 2.36 0 0 1 1.718-.698 2.45 2.45 0 0 1 1.752.698q.72.699.721 1.75c0 .7-.241 1.243-.721 1.714a2.4 2.4 0 0 1-1.752.709m1.833 29.362h-3.758V11.755h3.758zm17.233-31.377q-1.1-.618-2.498-.618-3.94.002-3.942 4.962v3.613h5.499v3.2h-5.499V35.17h-3.736V14.956h-4.01v-3.202h4.01V7.96q0-3.682 2.13-5.82 2.13-2.137 5.318-2.136 1.718-.001 2.725.412v3.383zm19.983 20.604h-16.568q.091 3.91 2.109 6.036t5.545 2.126q3.964 0 7.288-2.608v3.523q-3.095 2.241-8.183 2.24c-3.393 0-5.92-1.064-7.815-3.19q-2.842-3.19-2.841-8.975-.001-5.464 3.106-8.906 3.103-3.442 7.711-3.442 4.606 0 7.126 2.974 2.522 2.973 2.522 8.256zm-3.851-3.18q-.023-3.246-1.571-5.055-1.547-1.806-4.296-1.808c-1.833 0-3.278.634-4.513 1.9q-1.857 1.898-2.292 4.96h12.672zm8.212 8.454h-1.78v5.496h-.721v-5.496h-1.774v-.652h4.275zM158 35.172h-.718v-4.124q0-.49.059-1.195h-.016q-.105.416-.185.596l-2.107 4.726h-.351l-2.101-4.691a4 4 0 0 1-.185-.632h-.016q.033.37.035 1.204v4.116h-.697v-6.149h.954l1.889 4.287q.22.494.284.739h.027q.186-.506.298-.755l1.929-4.27h.904v6.148zM29.919 46v-2.723h51.574V46z"/></g><defs><clipPath id="a"><path fill="#fff" d="M0 0h158v46H0z"/></clipPath></defs></svg>