<svg width="84" height="84" viewBox="0 0 84 84" fill="none" xmlns="http://www.w3.org/2000/svg"><path d="M32.362 46.362a7.14 7.14 0 0 0-8.451-1.015l-2.782-2.572a5.25 5.25 0 0 0-5.897-.945l-5.494-5.249a5.844 5.844 0 0 0-8.014 0 5.48 5.48 0 0 0-.91 6.754L11.12 59.083c.16.242.376.44.63.578l11.006 6.124v2.467a1.75 1.75 0 0 0-1.75 1.75V82.25a1.75 1.75 0 0 0 1.75 1.75h15.748a1.75 1.75 0 0 0 1.75-1.75V55.811a5.25 5.25 0 0 0-1.75-3.902zM13.78 56.861 3.77 41.533a1.94 1.94 0 0 1 .35-2.397 2.31 2.31 0 0 1 3.185 0l5.424 5.162a4.95 4.95 0 0 0 1.085 5.756l5.092 4.76 2.397-2.555-5.075-4.742a1.507 1.507 0 0 1 0-2.205 1.84 1.84 0 0 1 2.503 0l3.867 3.5a1.75 1.75 0 0 0 2.397 0 3.604 3.604 0 0 1 4.987 0l6.211 5.582a1.75 1.75 0 0 1 .578 1.295v12.563H26.256v-3.5a1.75 1.75 0 0 0-.91-1.522zm22.974 23.64H24.506v-8.75h12.248zm45.494-43.885a5.844 5.844 0 0 0-8.014 0l-5.512 5.25a5.25 5.25 0 0 0-5.879.927l-2.8 2.59a7.12 7.12 0 0 0-8.398.962l-6.142 5.564a5.25 5.25 0 0 0-1.75 3.902v26.44A1.75 1.75 0 0 0 45.503 84H61.25A1.75 1.75 0 0 0 63 82.25V70.002a1.75 1.75 0 0 0-1.75-1.75v-2.467l11.023-6.054a1.75 1.75 0 0 0 .63-.578l10.342-15.87a5.46 5.46 0 0 0-.998-6.667M59.501 80.5H47.253v-8.75H59.5zm20.787-39.056-10.06 15.433-11.55 6.335a1.75 1.75 0 0 0-.927 1.54v3.499H47.253v-12.44a1.75 1.75 0 0 1 .577-1.295l6.247-5.617a3.587 3.587 0 0 1 4.934 0 1.75 1.75 0 0 0 2.397 0l3.885-3.604a1.75 1.75 0 0 1 2.484 0 1.505 1.505 0 0 1 0 2.187l-5.091 4.76 2.397 2.554 5.11-4.777a4.95 4.95 0 0 0 1.067-5.739l5.424-5.25a2.31 2.31 0 0 1 3.167 0 1.924 1.924 0 0 1 .437 2.415M66.063 24.507H70v-3.5h-2.432a16.5 16.5 0 0 0-4.025-16.202A15.9 15.9 0 0 0 52.153.01a15.84 15.84 0 0 0-10.15 3.64 15.94 15.94 0 0 0-21.54 1.137 16.5 16.5 0 0 0-4.024 16.22h-4.182v3.5h5.687a16.2 16.2 0 0 0 2.52 3.36L40.76 48.479a1.75 1.75 0 0 0 2.502 0L63.56 27.867a16.2 16.2 0 0 0 2.502-3.36M22.966 7.255a12.44 12.44 0 0 1 17.795 0 1.75 1.75 0 0 0 2.502 0 12.4 12.4 0 0 1 8.89-3.745 12.4 12.4 0 0 1 8.888 3.745 13 13 0 0 1 2.835 13.753H52.502a1.75 1.75 0 0 0-1.242.507l-4.007 4.025-11.006-11.024a1.75 1.75 0 0 0-2.468 0l-6.491 6.492H20.13a13 13 0 0 1 2.835-13.753m19.037 37.497L22.966 25.417c-.28-.297-.56-.595-.805-.91h5.844A1.75 1.75 0 0 0 29.247 24l5.757-5.774L46.01 29.232a1.75 1.75 0 0 0 2.468 0l4.741-4.725h8.627a13 13 0 0 1-.805.91zM77 21.008h-3.5v3.5H77zm-68.242 0h-3.5v3.5h3.5z" fill="#F6DBA0"/></svg>