<svg width="85" height="84" viewBox="0 0 85 84" fill="none" xmlns="http://www.w3.org/2000/svg"><path d="M38.467 26.545h-2.8v2.794h2.8zm11.2 0h-2.8v2.794h2.8zm-6.86 7.928.63.315 1.26-2.498-.63-.314a1.4 1.4 0 0 1-.7-1.694l.63-1.886-2.66-.89-.63 1.885a4.23 4.23 0 0 0 2.1 5.082m-4.025 5.135a6.99 6.99 0 0 0 7.77 0l1.085-.734-1.558-2.323-1.085.734a4.18 4.18 0 0 1-4.655 0l-1.085-.734-1.557 2.323zM17.87 26.143a1.407 1.407 0 0 0 1.977 0c.262-.262.402-.611.402-.995v-6.986h-1.4c-.77 0-1.4.629-1.4 1.397v2.218l-3.202-3.196a1.4 1.4 0 0 0-.998-.401H4.867c-.77 0-1.4-.63-1.4-1.398V5.588c0-.768.63-1.397 1.4-1.397h16.8V1.397h-16.8c-2.31 0-4.2 1.886-4.2 4.191v11.177c0 2.305 1.89 4.191 4.2 4.191h7.822z" fill="#F6DBA0"/><path d="M18.867 6.985h-12.6V9.78h12.6zm0 5.589h-12.6v2.794h12.6z" fill="#F6DBA0"/><path d="m68.532 58.154 1.47-2.375a6.7 6.7 0 0 0-1.435-.664l-17.5-5.833v-6.531a15.47 15.47 0 0 0 5.11-7.998l2.642-.664c2.433-.611 3.92-3.056 3.308-5.484a4.5 4.5 0 0 0-.84-1.711l.175-.524a43.26 43.26 0 0 0 1.382-22.196l-.612-3.056A1.39 1.39 0 0 0 60.867 0H34.162c-7.018 0-12.723 5.676-12.723 12.696 0 .89.088 1.781.28 2.655l2.45 11.368c-1.645 1.886-1.435 4.75.455 6.392a4.5 4.5 0 0 0 1.873.978l2.642.664a15.4 15.4 0 0 0 5.11 7.998v6.531l-12.407 4.122-.193-4.54v-3.301l.473-.245a4.17 4.17 0 0 0 2.327-3.755v-3.842c0-2.305-1.89-4.19-4.2-4.19h-5.582v-5.59a4.186 4.186 0 0 0-4.2-4.19 4.186 4.186 0 0 0-4.2 4.19v13.64c0 1.59.892 3.038 2.327 3.755l.473.244v1.921c-.753 0-1.365.594-1.4 1.345L6.564 75.39c-.192 4.471 3.29 8.243 7.77 8.435a8.11 8.11 0 0 0 8.453-7.754 4.4 4.4 0 0 0 0-.68l-.788-19.07 8.085-2.69v10.635a1.403 1.403 0 0 0 2.328 1.048l5.11-4.47c.21.506.507.977.857 1.396l-2.695 21.41 2.783.35 2.502-19.996c1.103.35 2.31.35 3.413 0L46.884 84l2.783-.35-2.678-21.41a6 6 0 0 0 .858-1.397l5.11 4.47c.577.507 1.47.455 1.977-.139.228-.262.35-.576.35-.925V53.613l12.408 4.122c.28.122.577.262.84.419M9.067 27.942c0-.769.63-1.397 1.4-1.397s1.4.628 1.4 1.397v5.588h-1.4c-.473 0-.945.087-1.4.245zm9.432 51.465a5.316 5.316 0 0 1-7.507.157 5.27 5.27 0 0 1-1.628-4.051l.7-16.835h9.223l.7 16.835a5.32 5.32 0 0 1-1.488 3.894m-8.33-23.523.228-5.589h8.522l.228 5.589zm10.728-13.046-1.26.629c-.473.244-.77.716-.77 1.257v2.795h-7v-2.795c0-.524-.298-1.013-.77-1.257l-1.26-.629a1.38 1.38 0 0 1-.77-1.257v-3.86c0-.768.63-1.397 1.4-1.397h4.2c0 .769-.63 1.397-1.4 1.397h-1.4v2.795h1.4c2.31 0 4.2-1.886 4.2-4.192h2.8c.77 0 1.4.629 1.4 1.397v3.86c0 .524-.298 1.013-.77 1.257m37.24-11.473-1.505.366c.017-.279.017-.558.017-.855v-2.934h1.05c.963 0 1.75.786 1.75 1.746a1.7 1.7 0 0 1-1.312 1.677m-30.94 0a1.75 1.75 0 0 1-1.278-2.113 1.76 1.76 0 0 1 1.698-1.328h1.05v2.952c0 .28.017.558.017.855zm1.47-6.759v.542h-1.05a5 5 0 0 0-.893.087l-2.257-10.478c-1.155-5.344 2.257-10.6 7.612-11.753.683-.14 1.383-.227 2.083-.227h25.55l.385 1.938a40.64 40.64 0 0 1-1.225 20.572 4.3 4.3 0 0 0-1.155-.14h-1.05v-1.466a3.88 3.88 0 0 0-1.733-3.231 12.7 12.7 0 0 1-4.287-4.837l-1.138-2.27a1.39 1.39 0 0 0-1.872-.63 1.4 1.4 0 0 0-.578.524l-.577.978a12.64 12.64 0 0 1-9.555 6.043l-4.76.471a3.89 3.89 0 0 0-3.5 3.877m2.8 6.287V24.59c0-.56.42-1.03.98-1.083l4.76-.471A15.4 15.4 0 0 0 48.109 16.8l.035.052a15.54 15.54 0 0 0 5.233 5.92c.297.193.49.542.49.909v7.212c0 4.558-2.485 8.767-6.475 10.985l-4.043 2.235a1.36 1.36 0 0 1-1.365 0l-4.042-2.218a12.59 12.59 0 0 1-6.475-11.002m16.8 13.71v4.906l-5.6 3.353-5.6-3.353v-4.907l3.552 1.974a4.14 4.14 0 0 0 4.078 0zm-15.4 16.59v-8.488l2.625-.873 4.795 2.882zm9.8.279a2.81 2.81 0 0 1-2.8-2.69l2.8-2.444 2.8 2.444a2.81 2.81 0 0 1-2.8 2.69m9.8-.28-7.438-6.496 4.795-2.881 2.625.873v8.505z" fill="#F6DBA0"/><path d="M83.162 38.577a1.39 1.39 0 0 0-1.295-.856h-4.743l-2.415-4.82a1.39 1.39 0 0 0-1.872-.628c-.263.14-.49.349-.63.628l-2.398 4.82h-4.742c-.77 0-1.4.63-1.4 1.398 0 .366.14.733.402.995l3.675 3.667-1.26 6.252a1.39 1.39 0 0 0 1.103 1.642 1.5 1.5 0 0 0 1.12-.245l4.76-3.58 4.76 3.563c.612.471 1.487.332 1.96-.28.245-.314.332-.716.245-1.117l-1.26-6.252 3.675-3.668c.402-.384.525-.995.315-1.519m-6.493 3.737a1.4 1.4 0 0 0-.385 1.258l.683 3.405-2.66-1.99a1.42 1.42 0 0 0-1.68 0l-2.66 1.99.682-3.405a1.4 1.4 0 0 0-.385-1.258l-1.82-1.798h2.223c.525 0 1.015-.297 1.26-.769l1.54-3.09 1.54 3.09c.245.472.717.769 1.26.769h2.222z" fill="#F6DBA0"/><path d="M79.067 57.28h-1.4c-1.54 0-2.8-1.257-2.8-2.794v-2.794h-2.8v2.794a5.59 5.59 0 0 0 5.6 5.589h1.4c1.54 0 2.8 1.257 2.8 2.794a2.805 2.805 0 0 1-2.8 2.794h-12.6a5.588 5.588 0 1 0 0 11.177h1.4c2.31 0 4.2 1.886 4.2 4.191v2.794h2.8v-2.794c0-3.86-3.133-6.985-7-6.985h-1.4c-1.54 0-2.8-1.258-2.8-2.794a2.805 2.805 0 0 1 2.8-2.795h12.6a5.588 5.588 0 1 0 0-11.176m-4.2-32.133h-2.8v4.19h2.8zm4.607 1.808-2.796 2.79 1.98 1.977 2.796-2.791zm3.359 5.249-4.2 1.397.885 2.65 4.2-1.396zm-15.375-5.249-1.98 1.976 2.796 2.79 1.98-1.975zm-3.337 5.251-.885 2.65 4.2 1.398.885-2.65z" fill="#F6DBA0"/></svg>
